<mxfile host="65bd71144e" pages="5">
    <diagram id="BFhmOi5wU_xgaNPKwpR2" name="Display Player Score">
        <mxGraphModel dx="734" dy="585" grid="1" gridSize="10" guides="1" tooltips="1" connect="1" arrows="1" fold="1" page="1" pageScale="1" pageWidth="1169" pageHeight="827" math="0" shadow="0">
            <root>
                <mxCell id="0"/>
                <mxCell id="1" parent="0"/>
                <mxCell id="cVwYsPHGXYPZHMjO5xsP-4" value="" style="edgeStyle=orthogonalEdgeStyle;rounded=0;orthogonalLoop=1;jettySize=auto;html=1;dashed=1;endArrow=none;endFill=0;exitX=0.5;exitY=1;exitDx=0;exitDy=0;" parent="1" source="cVwYsPHGXYPZHMjO5xsP-1" edge="1">
                    <mxGeometry relative="1" as="geometry">
                        <mxPoint x="480" y="650" as="targetPoint"/>
                        <mxPoint x="479.5" y="118" as="sourcePoint"/>
                        <Array as="points"/>
                    </mxGeometry>
                </mxCell>
                <mxCell id="CB8T1kKB-QZbDKMBK94T-1" style="edgeStyle=orthogonalEdgeStyle;rounded=0;orthogonalLoop=1;jettySize=auto;html=1;dashed=1;endArrow=none;endFill=0;" parent="1" edge="1">
                    <mxGeometry relative="1" as="geometry">
                        <mxPoint x="70" y="650" as="targetPoint"/>
                        <mxPoint x="70" y="190" as="sourcePoint"/>
                    </mxGeometry>
                </mxCell>
                <mxCell id="CB8T1kKB-QZbDKMBK94T-2" value="GameSystem" style="shape=umlActor;verticalLabelPosition=bottom;verticalAlign=top;html=1;outlineConnect=0;" parent="1" vertex="1">
                    <mxGeometry x="40" y="40" width="60" height="126" as="geometry"/>
                </mxCell>
                <mxCell id="CB8T1kKB-QZbDKMBK94T-3" value="changeSatisfactionBy(satisfactionPoints)" style="html=1;verticalAlign=bottom;endArrow=block;curved=0;rounded=0;fontSize=10;" parent="1" target="CB8T1kKB-QZbDKMBK94T-8" edge="1">
                    <mxGeometry x="-0.0001" width="80" relative="1" as="geometry">
                        <mxPoint x="70" y="216" as="sourcePoint"/>
                        <mxPoint x="260" y="216" as="targetPoint"/>
                        <mxPoint as="offset"/>
                    </mxGeometry>
                </mxCell>
                <mxCell id="CB8T1kKB-QZbDKMBK94T-4" value=":Player" style="html=1;whiteSpace=wrap;fontStyle=4;fontSize=17;horizontal=1;" parent="1" vertex="1">
                    <mxGeometry x="230" y="88" width="100" height="30" as="geometry"/>
                </mxCell>
                <mxCell id="CB8T1kKB-QZbDKMBK94T-5" style="edgeStyle=orthogonalEdgeStyle;rounded=0;orthogonalLoop=1;jettySize=auto;html=1;dashed=1;endArrow=none;endFill=0;exitX=0.5;exitY=1;exitDx=0;exitDy=0;" parent="1" edge="1">
                    <mxGeometry relative="1" as="geometry">
                        <mxPoint x="280" y="650" as="targetPoint"/>
                        <mxPoint x="280" y="136" as="sourcePoint"/>
                        <Array as="points">
                            <mxPoint x="280" y="426"/>
                        </Array>
                    </mxGeometry>
                </mxCell>
                <mxCell id="CB8T1kKB-QZbDKMBK94T-6" value="" style="html=1;verticalAlign=bottom;endArrow=open;dashed=1;endSize=8;curved=0;rounded=0;" parent="1" source="CB8T1kKB-QZbDKMBK94T-8" edge="1">
                    <mxGeometry relative="1" as="geometry">
                        <mxPoint x="70" y="256" as="targetPoint"/>
                        <mxPoint x="280" y="476" as="sourcePoint"/>
                    </mxGeometry>
                </mxCell>
                <mxCell id="CB8T1kKB-QZbDKMBK94T-7" value="" style="edgeStyle=orthogonalEdgeStyle;rounded=0;orthogonalLoop=1;jettySize=auto;html=1;dashed=1;endArrow=none;endFill=0;exitX=0.5;exitY=1;exitDx=0;exitDy=0;" parent="1" source="CB8T1kKB-QZbDKMBK94T-4" target="CB8T1kKB-QZbDKMBK94T-8" edge="1">
                    <mxGeometry relative="1" as="geometry">
                        <mxPoint x="280" y="336" as="targetPoint"/>
                        <mxPoint x="280" y="76" as="sourcePoint"/>
                        <Array as="points">
                            <mxPoint x="280" y="226"/>
                            <mxPoint x="280" y="226"/>
                        </Array>
                    </mxGeometry>
                </mxCell>
                <mxCell id="CB8T1kKB-QZbDKMBK94T-8" value="" style="html=1;points=[[0,0,0,0,5],[0,1,0,0,-5],[1,0,0,0,5],[1,1,0,0,-5]];perimeter=orthogonalPerimeter;outlineConnect=0;targetShapes=umlLifeline;portConstraint=eastwest;newEdgeStyle={&quot;curved&quot;:0,&quot;rounded&quot;:0};" parent="1" vertex="1">
                    <mxGeometry x="275" y="216" width="10" height="40" as="geometry"/>
                </mxCell>
                <mxCell id="sUQsupSwyyRnk_pXSJ9m-1" value="changeResourcesBy(numMaterials)" style="html=1;verticalAlign=bottom;endArrow=block;curved=0;rounded=0;" parent="1" edge="1">
                    <mxGeometry x="-0.0001" width="80" relative="1" as="geometry">
                        <mxPoint x="70" y="286" as="sourcePoint"/>
                        <mxPoint x="275" y="286" as="targetPoint"/>
                        <mxPoint as="offset"/>
                    </mxGeometry>
                </mxCell>
                <mxCell id="sUQsupSwyyRnk_pXSJ9m-2" value="" style="html=1;points=[[0,0,0,0,5],[0,1,0,0,-5],[1,0,0,0,5],[1,1,0,0,-5]];perimeter=orthogonalPerimeter;outlineConnect=0;targetShapes=umlLifeline;portConstraint=eastwest;newEdgeStyle={&quot;curved&quot;:0,&quot;rounded&quot;:0};" parent="1" vertex="1">
                    <mxGeometry x="275" y="286" width="10" height="40" as="geometry"/>
                </mxCell>
                <mxCell id="sUQsupSwyyRnk_pXSJ9m-3" value="" style="html=1;verticalAlign=bottom;endArrow=open;dashed=1;endSize=8;curved=0;rounded=0;" parent="1" edge="1">
                    <mxGeometry relative="1" as="geometry">
                        <mxPoint x="70" y="326" as="targetPoint"/>
                        <mxPoint x="275" y="326" as="sourcePoint"/>
                    </mxGeometry>
                </mxCell>
                <mxCell id="sUQsupSwyyRnk_pXSJ9m-4" value="changeKnowledgeBy(knowledgePoints)" style="html=1;verticalAlign=bottom;endArrow=block;curved=0;rounded=0;fontSize=10;fontColor=#000000;strokeColor=#000000;" parent="1" edge="1">
                    <mxGeometry x="-0.0001" width="80" relative="1" as="geometry">
                        <mxPoint x="70" y="356" as="sourcePoint"/>
                        <mxPoint x="275" y="356" as="targetPoint"/>
                        <mxPoint as="offset"/>
                    </mxGeometry>
                </mxCell>
                <mxCell id="sUQsupSwyyRnk_pXSJ9m-5" value="" style="html=1;points=[[0,0,0,0,5],[0,1,0,0,-5],[1,0,0,0,5],[1,1,0,0,-5]];perimeter=orthogonalPerimeter;outlineConnect=0;targetShapes=umlLifeline;portConstraint=eastwest;newEdgeStyle={&quot;curved&quot;:0,&quot;rounded&quot;:0};" parent="1" vertex="1">
                    <mxGeometry x="275" y="356" width="10" height="40" as="geometry"/>
                </mxCell>
                <mxCell id="sUQsupSwyyRnk_pXSJ9m-6" value="" style="html=1;verticalAlign=bottom;endArrow=open;dashed=1;endSize=8;curved=0;rounded=0;" parent="1" edge="1">
                    <mxGeometry relative="1" as="geometry">
                        <mxPoint x="70" y="396" as="targetPoint"/>
                        <mxPoint x="275" y="396" as="sourcePoint"/>
                    </mxGeometry>
                </mxCell>
                <mxCell id="NgBp5Ehm1talDM_-sYdz-2" value="" style="html=1;points=[[0,0,0,0,5],[0,1,0,0,-5],[1,0,0,0,5],[1,1,0,0,-5]];perimeter=orthogonalPerimeter;outlineConnect=0;targetShapes=umlLifeline;portConstraint=eastwest;newEdgeStyle={&quot;curved&quot;:0,&quot;rounded&quot;:0};" parent="1" vertex="1">
                    <mxGeometry x="475" y="430" width="10" height="200" as="geometry"/>
                </mxCell>
                <mxCell id="cVwYsPHGXYPZHMjO5xsP-1" value=":GameSystem" style="html=1;whiteSpace=wrap;fontStyle=4;fontSize=17;horizontal=1;" parent="1" vertex="1">
                    <mxGeometry x="415" y="88" width="130" height="30" as="geometry"/>
                </mxCell>
                <mxCell id="cVwYsPHGXYPZHMjO5xsP-3" value="*updatePlayerDisplay()" style="html=1;verticalAlign=bottom;endArrow=block;curved=0;rounded=0;fontSize=11;fontColor=#000000;" parent="1" target="NgBp5Ehm1talDM_-sYdz-2" edge="1">
                    <mxGeometry x="-0.0001" width="80" relative="1" as="geometry">
                        <mxPoint x="70" y="430" as="sourcePoint"/>
                        <mxPoint x="470" y="430" as="targetPoint"/>
                        <mxPoint as="offset"/>
                    </mxGeometry>
                </mxCell>
                <mxCell id="cVwYsPHGXYPZHMjO5xsP-6" value="" style="html=1;verticalAlign=bottom;endArrow=open;dashed=1;endSize=8;curved=0;rounded=0;" parent="1" edge="1">
                    <mxGeometry relative="1" as="geometry">
                        <mxPoint x="70" y="629.52" as="targetPoint"/>
                        <mxPoint x="475" y="630" as="sourcePoint"/>
                    </mxGeometry>
                </mxCell>
                <mxCell id="2AyEFJnxzg3aRmRSCOIY-2" value="" style="html=1;points=[[0,0,0,0,5],[0,1,0,0,-5],[1,0,0,0,5],[1,1,0,0,-5]];perimeter=orthogonalPerimeter;outlineConnect=0;targetShapes=umlLifeline;portConstraint=eastwest;newEdgeStyle={&quot;curved&quot;:0,&quot;rounded&quot;:0};" parent="1" vertex="1">
                    <mxGeometry x="275" y="460" width="10" height="30" as="geometry"/>
                </mxCell>
                <mxCell id="2AyEFJnxzg3aRmRSCOIY-3" value="getSatisfactionPoints()" style="html=1;verticalAlign=bottom;endArrow=none;curved=0;rounded=0;fontSize=11;fontColor=#000000;strokeColor=#000000;startArrow=block;startFill=1;endFill=0;" parent="1" source="2AyEFJnxzg3aRmRSCOIY-2" edge="1">
                    <mxGeometry x="-0.0001" width="80" relative="1" as="geometry">
                        <mxPoint x="290" y="460" as="sourcePoint"/>
                        <mxPoint x="475" y="460" as="targetPoint"/>
                        <mxPoint as="offset"/>
                    </mxGeometry>
                </mxCell>
                <mxCell id="2AyEFJnxzg3aRmRSCOIY-6" value="return satisfactionPoints" style="html=1;verticalAlign=bottom;endArrow=none;dashed=1;endSize=8;curved=0;rounded=0;endFill=0;startArrow=open;startFill=0;fontSize=11;" parent="1" source="NgBp5Ehm1talDM_-sYdz-2" edge="1">
                    <mxGeometry relative="1" as="geometry">
                        <mxPoint x="285" y="490" as="targetPoint"/>
                        <mxPoint x="470" y="490" as="sourcePoint"/>
                    </mxGeometry>
                </mxCell>
                <mxCell id="2AyEFJnxzg3aRmRSCOIY-8" value="return resourcesPoints" style="html=1;verticalAlign=bottom;endArrow=none;dashed=1;endSize=8;curved=0;rounded=0;endFill=0;startArrow=open;startFill=0;fontSize=11;" parent="1" edge="1">
                    <mxGeometry relative="1" as="geometry">
                        <mxPoint x="285" y="550" as="targetPoint"/>
                        <mxPoint x="475" y="550" as="sourcePoint"/>
                    </mxGeometry>
                </mxCell>
                <mxCell id="2AyEFJnxzg3aRmRSCOIY-9" value="getResourcesPoints()" style="html=1;verticalAlign=bottom;endArrow=none;curved=0;rounded=0;fontSize=11;fontColor=#000000;strokeColor=#000000;startArrow=block;startFill=1;endFill=0;" parent="1" source="2AyEFJnxzg3aRmRSCOIY-10" edge="1">
                    <mxGeometry x="-0.0001" width="80" relative="1" as="geometry">
                        <mxPoint x="290" y="520" as="sourcePoint"/>
                        <mxPoint x="475" y="520" as="targetPoint"/>
                        <mxPoint as="offset"/>
                    </mxGeometry>
                </mxCell>
                <mxCell id="2AyEFJnxzg3aRmRSCOIY-10" value="" style="html=1;points=[[0,0,0,0,5],[0,1,0,0,-5],[1,0,0,0,5],[1,1,0,0,-5]];perimeter=orthogonalPerimeter;outlineConnect=0;targetShapes=umlLifeline;portConstraint=eastwest;newEdgeStyle={&quot;curved&quot;:0,&quot;rounded&quot;:0};" parent="1" vertex="1">
                    <mxGeometry x="275" y="520" width="10" height="30" as="geometry"/>
                </mxCell>
                <mxCell id="2AyEFJnxzg3aRmRSCOIY-11" value="return knowledgePoints" style="html=1;verticalAlign=bottom;endArrow=none;dashed=1;endSize=8;curved=0;rounded=0;endFill=0;startArrow=open;startFill=0;fontSize=11;" parent="1" edge="1">
                    <mxGeometry relative="1" as="geometry">
                        <mxPoint x="285" y="610" as="targetPoint"/>
                        <mxPoint x="475" y="610" as="sourcePoint"/>
                    </mxGeometry>
                </mxCell>
                <mxCell id="2AyEFJnxzg3aRmRSCOIY-12" value="getKnowledgePoints()" style="html=1;verticalAlign=bottom;endArrow=none;curved=0;rounded=0;fontSize=11;fontColor=#000000;strokeColor=#000000;startArrow=block;startFill=1;endFill=0;" parent="1" source="2AyEFJnxzg3aRmRSCOIY-13" edge="1">
                    <mxGeometry x="-0.0001" width="80" relative="1" as="geometry">
                        <mxPoint x="290" y="580" as="sourcePoint"/>
                        <mxPoint x="475" y="580" as="targetPoint"/>
                        <mxPoint as="offset"/>
                    </mxGeometry>
                </mxCell>
                <mxCell id="2AyEFJnxzg3aRmRSCOIY-13" value="" style="html=1;points=[[0,0,0,0,5],[0,1,0,0,-5],[1,0,0,0,5],[1,1,0,0,-5]];perimeter=orthogonalPerimeter;outlineConnect=0;targetShapes=umlLifeline;portConstraint=eastwest;newEdgeStyle={&quot;curved&quot;:0,&quot;rounded&quot;:0};" parent="1" vertex="1">
                    <mxGeometry x="275" y="580" width="10" height="30" as="geometry"/>
                </mxCell>
            </root>
        </mxGraphModel>
    </diagram>
    <diagram id="2ozibenewit8hcmwq1nQ" name="Move Player">
        <mxGraphModel dx="734" dy="585" grid="1" gridSize="10" guides="1" tooltips="1" connect="1" arrows="1" fold="1" page="1" pageScale="1" pageWidth="1169" pageHeight="827" math="0" shadow="0">
            <root>
                <mxCell id="0"/>
                <mxCell id="1" parent="0"/>
                <mxCell id="DZ2WO6zDqj_0iAya8Nh9-16" value="setDieValue(number)" style="html=1;verticalAlign=bottom;endArrow=block;endSize=8;curved=0;rounded=0;endFill=1;" parent="1" edge="1">
                    <mxGeometry x="-0.0021" relative="1" as="geometry">
                        <mxPoint x="315" y="375" as="targetPoint"/>
                        <mxPoint x="520" y="375" as="sourcePoint"/>
                        <mxPoint as="offset"/>
                    </mxGeometry>
                </mxCell>
                <mxCell id="RTE7wlXO6oooYHOc3Cf3-1" style="edgeStyle=orthogonalEdgeStyle;rounded=0;orthogonalLoop=1;jettySize=auto;html=1;dashed=1;endArrow=none;endFill=0;" parent="1" edge="1">
                    <mxGeometry relative="1" as="geometry">
                        <mxPoint x="100" y="540" as="targetPoint"/>
                        <mxPoint x="100" y="210" as="sourcePoint"/>
                    </mxGeometry>
                </mxCell>
                <mxCell id="RTE7wlXO6oooYHOc3Cf3-2" value="GameSystem" style="shape=umlActor;verticalLabelPosition=bottom;verticalAlign=top;html=1;outlineConnect=0;" parent="1" vertex="1">
                    <mxGeometry x="70" y="54" width="60" height="126" as="geometry"/>
                </mxCell>
                <mxCell id="OkV1Rktv-nLKamBy2jmu-1" value="nextTurn()" style="html=1;verticalAlign=bottom;endArrow=block;curved=0;rounded=0;" parent="1" target="DZ2WO6zDqj_0iAya8Nh9-6" edge="1">
                    <mxGeometry x="-0.0001" width="80" relative="1" as="geometry">
                        <mxPoint x="100" y="230" as="sourcePoint"/>
                        <mxPoint x="290" y="230" as="targetPoint"/>
                        <mxPoint as="offset"/>
                    </mxGeometry>
                </mxCell>
                <mxCell id="DZ2WO6zDqj_0iAya8Nh9-1" value=":GameSystem" style="html=1;whiteSpace=wrap;fontStyle=4;fontSize=17;horizontal=1;" parent="1" vertex="1">
                    <mxGeometry x="240" y="102" width="140" height="30" as="geometry"/>
                </mxCell>
                <mxCell id="DZ2WO6zDqj_0iAya8Nh9-2" style="edgeStyle=orthogonalEdgeStyle;rounded=0;orthogonalLoop=1;jettySize=auto;html=1;dashed=1;endArrow=none;endFill=0;exitX=0.5;exitY=1;exitDx=0;exitDy=0;" parent="1" source="DZ2WO6zDqj_0iAya8Nh9-1" edge="1">
                    <mxGeometry relative="1" as="geometry">
                        <mxPoint x="310" y="540" as="targetPoint"/>
                        <mxPoint x="310" y="150" as="sourcePoint"/>
                        <Array as="points"/>
                    </mxGeometry>
                </mxCell>
                <mxCell id="DZ2WO6zDqj_0iAya8Nh9-6" value="" style="html=1;points=[[0,0,0,0,5],[0,1,0,0,-5],[1,0,0,0,5],[1,1,0,0,-5]];perimeter=orthogonalPerimeter;outlineConnect=0;targetShapes=umlLifeline;portConstraint=eastwest;newEdgeStyle={&quot;curved&quot;:0,&quot;rounded&quot;:0};" parent="1" vertex="1">
                    <mxGeometry x="305" y="230" width="10" height="290" as="geometry"/>
                </mxCell>
                <mxCell id="DZ2WO6zDqj_0iAya8Nh9-12" style="edgeStyle=orthogonalEdgeStyle;rounded=0;orthogonalLoop=1;jettySize=auto;html=1;dashed=1;endArrow=none;endFill=0;exitX=0.5;exitY=1;exitDx=0;exitDy=0;" parent="1" source="iFawTyh-9yoWZ-bR4j5I-2" edge="1">
                    <mxGeometry relative="1" as="geometry">
                        <mxPoint x="520" y="540" as="targetPoint"/>
                        <mxPoint x="520" y="220" as="sourcePoint"/>
                        <Array as="points">
                            <mxPoint x="520" y="240"/>
                            <mxPoint x="520" y="240"/>
                        </Array>
                    </mxGeometry>
                </mxCell>
                <mxCell id="DZ2WO6zDqj_0iAya8Nh9-13" value="" style="html=1;points=[[0,0,0,0,5],[0,1,0,0,-5],[1,0,0,0,5],[1,1,0,0,-5]];perimeter=orthogonalPerimeter;outlineConnect=0;targetShapes=umlLifeline;portConstraint=eastwest;newEdgeStyle={&quot;curved&quot;:0,&quot;rounded&quot;:0};" parent="1" vertex="1">
                    <mxGeometry x="515" y="260" width="10" height="250" as="geometry"/>
                </mxCell>
                <mxCell id="DZ2WO6zDqj_0iAya8Nh9-15" value="&lt;font&gt;move()&lt;/font&gt;" style="html=1;verticalAlign=bottom;endArrow=block;curved=0;rounded=0;fontColor=#000000;" parent="1" target="DZ2WO6zDqj_0iAya8Nh9-13" edge="1">
                    <mxGeometry width="80" relative="1" as="geometry">
                        <mxPoint x="315" y="260" as="sourcePoint"/>
                        <mxPoint x="510" y="260" as="targetPoint"/>
                        <mxPoint as="offset"/>
                    </mxGeometry>
                </mxCell>
                <mxCell id="69XCKxYyq700fVCPG-G_-3" value="rollDie()" style="html=1;align=left;spacingLeft=2;endArrow=block;rounded=0;edgeStyle=orthogonalEdgeStyle;curved=0;rounded=0;fontColor=#000000;" parent="1" target="5kG4-YnD_Znt1Xrp_WWK-1" edge="1">
                    <mxGeometry x="0.1995" relative="1" as="geometry">
                        <mxPoint x="525" y="260" as="sourcePoint"/>
                        <Array as="points">
                            <mxPoint x="525" y="270"/>
                            <mxPoint x="550" y="270"/>
                            <mxPoint x="550" y="290"/>
                        </Array>
                        <mxPoint x="525" y="290" as="targetPoint"/>
                        <mxPoint as="offset"/>
                    </mxGeometry>
                </mxCell>
                <mxCell id="9ZQbUQg_hvsll_UYPljy-3" value="" style="html=1;verticalAlign=bottom;endArrow=open;dashed=1;endSize=8;curved=0;rounded=0;" parent="1" edge="1">
                    <mxGeometry relative="1" as="geometry">
                        <mxPoint x="100" y="520" as="targetPoint"/>
                        <mxPoint x="305" y="520" as="sourcePoint"/>
                    </mxGeometry>
                </mxCell>
                <mxCell id="iFawTyh-9yoWZ-bR4j5I-2" value=":Player" style="html=1;whiteSpace=wrap;fontStyle=4;fontSize=17;horizontal=1;" parent="1" vertex="1">
                    <mxGeometry x="470" y="102" width="100" height="30" as="geometry"/>
                </mxCell>
                <mxCell id="5kG4-YnD_Znt1Xrp_WWK-1" value="" style="html=1;points=[[0,0,0,0,5],[0,1,0,0,-5],[1,0,0,0,5],[1,1,0,0,-5]];perimeter=orthogonalPerimeter;outlineConnect=0;targetShapes=umlLifeline;portConstraint=eastwest;newEdgeStyle={&quot;curved&quot;:0,&quot;rounded&quot;:0};" parent="1" vertex="1">
                    <mxGeometry x="520" y="290" width="10" height="60" as="geometry"/>
                </mxCell>
                <mxCell id="5kG4-YnD_Znt1Xrp_WWK-2" value="return number" style="html=1;align=left;spacingLeft=2;endArrow=open;rounded=0;edgeStyle=orthogonalEdgeStyle;curved=0;rounded=0;fontColor=#000000;dashed=1;endFill=0;" parent="1" edge="1">
                    <mxGeometry x="-0.0672" relative="1" as="geometry">
                        <mxPoint x="530" y="350" as="sourcePoint"/>
                        <Array as="points">
                            <mxPoint x="555" y="350"/>
                            <mxPoint x="555" y="370"/>
                        </Array>
                        <mxPoint x="525" y="370.0181818181818" as="targetPoint"/>
                        <mxPoint as="offset"/>
                    </mxGeometry>
                </mxCell>
                <mxCell id="5kG4-YnD_Znt1Xrp_WWK-3" value="" style="html=1;verticalAlign=bottom;endArrow=open;dashed=1;endSize=8;curved=0;rounded=0;" parent="1" edge="1">
                    <mxGeometry relative="1" as="geometry">
                        <mxPoint x="515" y="395" as="targetPoint"/>
                        <mxPoint x="315" y="395" as="sourcePoint"/>
                    </mxGeometry>
                </mxCell>
                <mxCell id="CPYqNXyA-XBGENBMk5MH-1" value="*moveAction(number)" style="html=1;align=left;spacingLeft=2;endArrow=block;rounded=0;edgeStyle=orthogonalEdgeStyle;curved=0;rounded=0;fontColor=#000000;strokeColor=#000000;" parent="1" edge="1">
                    <mxGeometry relative="1" as="geometry">
                        <mxPoint x="525" y="400" as="sourcePoint"/>
                        <Array as="points">
                            <mxPoint x="550" y="400"/>
                            <mxPoint x="550" y="420"/>
                        </Array>
                        <mxPoint x="530.0000000000001" y="420" as="targetPoint"/>
                    </mxGeometry>
                </mxCell>
                <mxCell id="CPYqNXyA-XBGENBMk5MH-2" value="" style="html=1;verticalAlign=bottom;endArrow=open;dashed=1;endSize=8;curved=0;rounded=0;" parent="1" edge="1">
                    <mxGeometry relative="1" as="geometry">
                        <mxPoint x="315" y="510" as="targetPoint"/>
                        <mxPoint x="515" y="510" as="sourcePoint"/>
                    </mxGeometry>
                </mxCell>
                <mxCell id="MpJxLtQFmmD1CJYeq7lr-1" value="Player" style="shape=umlActor;verticalLabelPosition=bottom;verticalAlign=top;html=1;outlineConnect=0;" parent="1" vertex="1">
                    <mxGeometry x="690" y="64" width="60" height="126" as="geometry"/>
                </mxCell>
                <mxCell id="MpJxLtQFmmD1CJYeq7lr-2" value="Player confirms action" style="html=1;verticalAlign=bottom;endArrow=block;curved=0;rounded=0;fontColor=#000000;strokeColor=#000000;" parent="1" edge="1">
                    <mxGeometry x="-0.0038" width="80" relative="1" as="geometry">
                        <mxPoint x="530" y="310" as="sourcePoint"/>
                        <mxPoint x="715" y="310" as="targetPoint"/>
                        <mxPoint as="offset"/>
                    </mxGeometry>
                </mxCell>
                <mxCell id="MpJxLtQFmmD1CJYeq7lr-5" style="edgeStyle=orthogonalEdgeStyle;rounded=0;orthogonalLoop=1;jettySize=auto;html=1;dashed=1;endArrow=none;endFill=0;exitX=0.5;exitY=1;exitDx=0;exitDy=0;startArrow=none;" parent="1" source="MpJxLtQFmmD1CJYeq7lr-4" edge="1">
                    <mxGeometry relative="1" as="geometry">
                        <mxPoint x="720" y="540" as="targetPoint"/>
                        <mxPoint x="719.76" y="220" as="sourcePoint"/>
                        <Array as="points">
                            <mxPoint x="719.76" y="328"/>
                            <mxPoint x="719.76" y="328"/>
                        </Array>
                    </mxGeometry>
                </mxCell>
                <mxCell id="MpJxLtQFmmD1CJYeq7lr-6" value="" style="edgeStyle=orthogonalEdgeStyle;rounded=0;orthogonalLoop=1;jettySize=auto;html=1;dashed=1;endArrow=none;endFill=0;exitX=0.5;exitY=1;exitDx=0;exitDy=0;" parent="1" target="MpJxLtQFmmD1CJYeq7lr-4" edge="1">
                    <mxGeometry relative="1" as="geometry">
                        <mxPoint x="719.76" y="528" as="targetPoint"/>
                        <mxPoint x="719.76" y="220" as="sourcePoint"/>
                        <Array as="points">
                            <mxPoint x="720" y="280"/>
                            <mxPoint x="720" y="280"/>
                        </Array>
                    </mxGeometry>
                </mxCell>
                <mxCell id="MpJxLtQFmmD1CJYeq7lr-4" value="" style="html=1;points=[[0,0,0,0,5],[0,1,0,0,-5],[1,0,0,0,5],[1,1,0,0,-5]];perimeter=orthogonalPerimeter;outlineConnect=0;targetShapes=umlLifeline;portConstraint=eastwest;newEdgeStyle={&quot;curved&quot;:0,&quot;rounded&quot;:0};" parent="1" vertex="1">
                    <mxGeometry x="715" y="310" width="10" height="20" as="geometry"/>
                </mxCell>
                <mxCell id="MpJxLtQFmmD1CJYeq7lr-7" value="" style="html=1;points=[[0,0,0,0,5],[0,1,0,0,-5],[1,0,0,0,5],[1,1,0,0,-5]];perimeter=orthogonalPerimeter;outlineConnect=0;targetShapes=umlLifeline;portConstraint=eastwest;newEdgeStyle={&quot;curved&quot;:0,&quot;rounded&quot;:0};" parent="1" vertex="1">
                    <mxGeometry x="520" y="419" width="10" height="51" as="geometry"/>
                </mxCell>
                <mxCell id="MpJxLtQFmmD1CJYeq7lr-8" value="" style="html=1;verticalAlign=bottom;endArrow=open;dashed=1;endSize=8;curved=0;rounded=0;" parent="1" source="MpJxLtQFmmD1CJYeq7lr-4" edge="1">
                    <mxGeometry relative="1" as="geometry">
                        <mxPoint x="530" y="330" as="targetPoint"/>
                        <mxPoint x="710" y="330" as="sourcePoint"/>
                    </mxGeometry>
                </mxCell>
                <mxCell id="MpJxLtQFmmD1CJYeq7lr-9" value="Player chooses direction" style="html=1;verticalAlign=bottom;endArrow=block;curved=0;rounded=0;fontColor=#000000;" parent="1" source="MpJxLtQFmmD1CJYeq7lr-7" edge="1">
                    <mxGeometry x="-0.0038" width="80" relative="1" as="geometry">
                        <mxPoint x="525.0000000000001" y="432" as="sourcePoint"/>
                        <mxPoint x="715" y="432" as="targetPoint"/>
                        <mxPoint as="offset"/>
                    </mxGeometry>
                </mxCell>
                <mxCell id="MpJxLtQFmmD1CJYeq7lr-10" value="" style="html=1;points=[[0,0,0,0,5],[0,1,0,0,-5],[1,0,0,0,5],[1,1,0,0,-5]];perimeter=orthogonalPerimeter;outlineConnect=0;targetShapes=umlLifeline;portConstraint=eastwest;newEdgeStyle={&quot;curved&quot;:0,&quot;rounded&quot;:0};" parent="1" vertex="1">
                    <mxGeometry x="715" y="431" width="10" height="29" as="geometry"/>
                </mxCell>
                <mxCell id="MpJxLtQFmmD1CJYeq7lr-11" value="return direction chosen" style="html=1;verticalAlign=bottom;endArrow=open;dashed=1;endSize=8;curved=0;rounded=0;" parent="1" edge="1">
                    <mxGeometry relative="1" as="geometry">
                        <mxPoint x="530" y="460" as="targetPoint"/>
                        <mxPoint x="715" y="459.99999999999994" as="sourcePoint"/>
                    </mxGeometry>
                </mxCell>
                <mxCell id="MpJxLtQFmmD1CJYeq7lr-12" value="return true" style="html=1;align=left;spacingLeft=2;endArrow=open;rounded=0;edgeStyle=orthogonalEdgeStyle;curved=0;rounded=0;fontColor=#000000;dashed=1;endFill=0;" parent="1" edge="1">
                    <mxGeometry x="-0.0672" relative="1" as="geometry">
                        <mxPoint x="530.0000000000001" y="469.98" as="sourcePoint"/>
                        <Array as="points">
                            <mxPoint x="555" y="469.98"/>
                            <mxPoint x="555" y="489.98"/>
                        </Array>
                        <mxPoint x="525.0000000000001" y="489.9981818181818" as="targetPoint"/>
                        <mxPoint as="offset"/>
                    </mxGeometry>
                </mxCell>
            </root>
        </mxGraphModel>
    </diagram>
    <diagram id="1gTBsRZRr8wAKN8Hd8PT" name="Encounter Pothole">
        <mxGraphModel dx="864" dy="688" grid="1" gridSize="10" guides="1" tooltips="1" connect="1" arrows="1" fold="1" page="1" pageScale="1" pageWidth="1169" pageHeight="827" math="0" shadow="0">
            <root>
                <mxCell id="0"/>
                <mxCell id="1" parent="0"/>
                <mxCell id="z2ZLnlqgVo34QBHHwuSM-2" style="edgeStyle=orthogonalEdgeStyle;rounded=0;orthogonalLoop=1;jettySize=auto;html=1;dashed=1;endArrow=none;endFill=0;exitX=0.5;exitY=1;exitDx=0;exitDy=0;" parent="1" source="z2ZLnlqgVo34QBHHwuSM-1" edge="1">
                    <mxGeometry relative="1" as="geometry">
                        <mxPoint x="830" y="570" as="targetPoint"/>
                        <mxPoint x="829.5" y="118" as="sourcePoint"/>
                    </mxGeometry>
                </mxCell>
                <mxCell id="cZLKyapiCokXKq591BfC-4" value=":Board" style="html=1;whiteSpace=wrap;fontStyle=4;fontSize=17;horizontal=1;" parent="1" vertex="1">
                    <mxGeometry x="570" y="88" width="100" height="30" as="geometry"/>
                </mxCell>
                <mxCell id="cZLKyapiCokXKq591BfC-5" style="edgeStyle=orthogonalEdgeStyle;rounded=0;orthogonalLoop=1;jettySize=auto;html=1;dashed=1;endArrow=none;endFill=0;exitX=0.5;exitY=1;exitDx=0;exitDy=0;" parent="1" edge="1">
                    <mxGeometry relative="1" as="geometry">
                        <mxPoint x="620" y="570" as="targetPoint"/>
                        <mxPoint x="620" y="136" as="sourcePoint"/>
                        <Array as="points">
                            <mxPoint x="620" y="426"/>
                        </Array>
                    </mxGeometry>
                </mxCell>
                <mxCell id="cZLKyapiCokXKq591BfC-6" value="return Pothole square" style="html=1;verticalAlign=bottom;endArrow=open;dashed=1;endSize=8;curved=0;rounded=0;" parent="1" source="cZLKyapiCokXKq591BfC-8" edge="1">
                    <mxGeometry relative="1" as="geometry">
                        <mxPoint x="410" y="280" as="targetPoint"/>
                        <mxPoint x="620" y="476" as="sourcePoint"/>
                    </mxGeometry>
                </mxCell>
                <mxCell id="cZLKyapiCokXKq591BfC-7" value="" style="edgeStyle=orthogonalEdgeStyle;rounded=0;orthogonalLoop=1;jettySize=auto;html=1;dashed=1;endArrow=none;endFill=0;exitX=0.5;exitY=1;exitDx=0;exitDy=0;" parent="1" source="cZLKyapiCokXKq591BfC-4" target="cZLKyapiCokXKq591BfC-8" edge="1">
                    <mxGeometry relative="1" as="geometry">
                        <mxPoint x="620" y="336" as="targetPoint"/>
                        <mxPoint x="620" y="76" as="sourcePoint"/>
                        <Array as="points">
                            <mxPoint x="620" y="226"/>
                            <mxPoint x="620" y="226"/>
                        </Array>
                    </mxGeometry>
                </mxCell>
                <mxCell id="cZLKyapiCokXKq591BfC-8" value="" style="html=1;points=[[0,0,0,0,5],[0,1,0,0,-5],[1,0,0,0,5],[1,1,0,0,-5]];perimeter=orthogonalPerimeter;outlineConnect=0;targetShapes=umlLifeline;portConstraint=eastwest;newEdgeStyle={&quot;curved&quot;:0,&quot;rounded&quot;:0};" parent="1" vertex="1">
                    <mxGeometry x="615" y="210" width="10" height="70" as="geometry"/>
                </mxCell>
                <mxCell id="cZLKyapiCokXKq591BfC-11" value="" style="html=1;points=[[0,0,0,0,5],[0,1,0,0,-5],[1,0,0,0,5],[1,1,0,0,-5]];perimeter=orthogonalPerimeter;outlineConnect=0;targetShapes=umlLifeline;portConstraint=eastwest;newEdgeStyle={&quot;curved&quot;:0,&quot;rounded&quot;:0};" parent="1" vertex="1">
                    <mxGeometry x="825" y="310" width="10" height="240" as="geometry"/>
                </mxCell>
                <mxCell id="cZLKyapiCokXKq591BfC-12" value="activateSquareEffect()" style="html=1;verticalAlign=bottom;endArrow=block;curved=0;rounded=0;" parent="1" edge="1">
                    <mxGeometry x="-0.0001" width="80" relative="1" as="geometry">
                        <mxPoint x="410" y="310.39" as="sourcePoint"/>
                        <mxPoint x="825" y="310.39" as="targetPoint"/>
                        <mxPoint as="offset"/>
                    </mxGeometry>
                </mxCell>
                <mxCell id="z2ZLnlqgVo34QBHHwuSM-1" value=":Pothole" style="html=1;whiteSpace=wrap;fontStyle=4;fontSize=17;horizontal=1;" parent="1" vertex="1">
                    <mxGeometry x="780" y="88" width="100" height="30" as="geometry"/>
                </mxCell>
                <mxCell id="z2ZLnlqgVo34QBHHwuSM-7" value=":Player" style="shape=umlActor;verticalLabelPosition=bottom;verticalAlign=top;html=1;outlineConnect=0;" parent="1" vertex="1">
                    <mxGeometry x="990" y="80" width="60" height="126" as="geometry"/>
                </mxCell>
                <mxCell id="z2ZLnlqgVo34QBHHwuSM-10" value="" style="edgeStyle=orthogonalEdgeStyle;rounded=0;orthogonalLoop=1;jettySize=auto;html=1;dashed=1;endArrow=none;endFill=0;" parent="1" edge="1">
                    <mxGeometry relative="1" as="geometry">
                        <mxPoint x="1019.66" y="569.97" as="targetPoint"/>
                        <mxPoint x="1019.66" y="449.97" as="sourcePoint"/>
                        <Array as="points">
                            <mxPoint x="1019.66" y="229.97"/>
                            <mxPoint x="1019.66" y="229.97"/>
                        </Array>
                    </mxGeometry>
                </mxCell>
                <mxCell id="z2ZLnlqgVo34QBHHwuSM-12" value="Player confirms action" style="html=1;verticalAlign=bottom;endArrow=block;curved=0;rounded=0;fontColor=#000000;" parent="1" target="z2ZLnlqgVo34QBHHwuSM-9" edge="1">
                    <mxGeometry x="-0.0038" width="80" relative="1" as="geometry">
                        <mxPoint x="835" y="480" as="sourcePoint"/>
                        <mxPoint x="1000" y="480" as="targetPoint"/>
                        <mxPoint as="offset"/>
                    </mxGeometry>
                </mxCell>
                <mxCell id="z2ZLnlqgVo34QBHHwuSM-14" value="" style="edgeStyle=orthogonalEdgeStyle;rounded=0;orthogonalLoop=1;jettySize=auto;html=1;dashed=1;endArrow=none;endFill=0;exitX=0.497;exitY=0.946;exitDx=0;exitDy=0;exitPerimeter=0;" parent="1" source="a5wuI-iL2rfHmkbNEn0v-1" edge="1">
                    <mxGeometry relative="1" as="geometry">
                        <mxPoint x="410" y="570" as="targetPoint"/>
                        <mxPoint x="410" y="120" as="sourcePoint"/>
                        <Array as="points">
                            <mxPoint x="410" y="380"/>
                            <mxPoint x="410" y="380"/>
                        </Array>
                    </mxGeometry>
                </mxCell>
                <mxCell id="iufEaWrzPLT815tgxP-E-1" value="displayOptions(size)" style="html=1;align=left;spacingLeft=2;endArrow=block;rounded=0;edgeStyle=orthogonalEdgeStyle;curved=0;rounded=0;fontColor=#000000;" parent="1" target="cZLKyapiCokXKq591BfC-11" edge="1">
                    <mxGeometry relative="1" as="geometry">
                        <mxPoint x="835" y="420" as="sourcePoint"/>
                        <Array as="points">
                            <mxPoint x="870" y="420"/>
                            <mxPoint x="870" y="440"/>
                        </Array>
                        <mxPoint x="840" y="440" as="targetPoint"/>
                    </mxGeometry>
                </mxCell>
                <mxCell id="iufEaWrzPLT815tgxP-E-2" value="" style="html=1;verticalAlign=bottom;endArrow=open;dashed=1;endSize=8;curved=0;rounded=0;" parent="1" edge="1">
                    <mxGeometry relative="1" as="geometry">
                        <mxPoint x="835" y="520" as="targetPoint"/>
                        <mxPoint x="1015" y="520" as="sourcePoint"/>
                    </mxGeometry>
                </mxCell>
                <mxCell id="z2ZLnlqgVo34QBHHwuSM-9" value="" style="html=1;points=[[0,0,0,0,5],[0,1,0,0,-5],[1,0,0,0,5],[1,1,0,0,-5]];perimeter=orthogonalPerimeter;outlineConnect=0;targetShapes=umlLifeline;portConstraint=eastwest;newEdgeStyle={&quot;curved&quot;:0,&quot;rounded&quot;:0};" parent="1" vertex="1">
                    <mxGeometry x="1015" y="480" width="10" height="40" as="geometry"/>
                </mxCell>
                <mxCell id="cZLKyapiCokXKq591BfC-3" value="getSquareAt(index)" style="html=1;verticalAlign=bottom;endArrow=block;curved=0;rounded=0;" parent="1" target="cZLKyapiCokXKq591BfC-8" edge="1">
                    <mxGeometry x="-0.0001" width="80" relative="1" as="geometry">
                        <mxPoint x="410" y="210" as="sourcePoint"/>
                        <mxPoint x="610" y="210" as="targetPoint"/>
                        <mxPoint as="offset"/>
                    </mxGeometry>
                </mxCell>
                <mxCell id="lIzufCYiKk7z4dLZtr_1-1" value="" style="html=1;points=[[0,0,0,0,5],[0,1,0,0,-5],[1,0,0,0,5],[1,1,0,0,-5]];perimeter=orthogonalPerimeter;outlineConnect=0;targetShapes=umlLifeline;portConstraint=eastwest;newEdgeStyle={&quot;curved&quot;:0,&quot;rounded&quot;:0};" parent="1" vertex="1">
                    <mxGeometry x="830" y="340" width="10" height="30" as="geometry"/>
                </mxCell>
                <mxCell id="a5Tn8Nhvvc9uMpnHrXOL-1" value="getPotholeSize()" style="html=1;align=left;spacingLeft=2;endArrow=block;rounded=0;edgeStyle=orthogonalEdgeStyle;curved=0;rounded=0;fontColor=#000000;" parent="1" edge="1">
                    <mxGeometry x="0.1995" relative="1" as="geometry">
                        <mxPoint x="835" y="310" as="sourcePoint"/>
                        <Array as="points">
                            <mxPoint x="835" y="320"/>
                            <mxPoint x="870" y="320"/>
                            <mxPoint x="870" y="340"/>
                        </Array>
                        <mxPoint x="840" y="340" as="targetPoint"/>
                        <mxPoint as="offset"/>
                    </mxGeometry>
                </mxCell>
                <mxCell id="a5Tn8Nhvvc9uMpnHrXOL-2" value="return size" style="html=1;align=left;spacingLeft=2;endArrow=open;rounded=0;edgeStyle=orthogonalEdgeStyle;curved=0;rounded=0;fontColor=#000000;dashed=1;endFill=0;" parent="1" edge="1">
                    <mxGeometry x="-0.0672" relative="1" as="geometry">
                        <mxPoint x="840" y="370" as="sourcePoint"/>
                        <Array as="points">
                            <mxPoint x="870" y="370"/>
                            <mxPoint x="870" y="390"/>
                        </Array>
                        <mxPoint x="835" y="390.0181818181818" as="targetPoint"/>
                        <mxPoint as="offset"/>
                    </mxGeometry>
                </mxCell>
                <mxCell id="DQHGE2Wk45LaZphvb-SO-2" value="return true" style="html=1;verticalAlign=bottom;endArrow=open;dashed=1;endSize=8;curved=0;rounded=0;fontColor=#000000;" parent="1" edge="1">
                    <mxGeometry relative="1" as="geometry">
                        <mxPoint x="410" y="550" as="targetPoint"/>
                        <mxPoint x="825" y="550" as="sourcePoint"/>
                    </mxGeometry>
                </mxCell>
                <mxCell id="a5wuI-iL2rfHmkbNEn0v-1" value=":GameSystem" style="html=1;whiteSpace=wrap;fontStyle=4;fontSize=17;horizontal=1;" parent="1" vertex="1">
                    <mxGeometry x="345" y="88" width="130" height="30" as="geometry"/>
                </mxCell>
            </root>
        </mxGraphModel>
    </diagram>
    <diagram id="SiPAjbxsBSBmqvlJHXYI" name="Encounter Knowledge">
        <mxGraphModel dx="734" dy="585" grid="1" gridSize="10" guides="1" tooltips="1" connect="1" arrows="1" fold="1" page="1" pageScale="1" pageWidth="1169" pageHeight="827" math="0" shadow="0">
            <root>
                <mxCell id="0"/>
                <mxCell id="1" parent="0"/>
                <mxCell id="WrvwV2eQ_7MtZvmLX-2Q-1" value=":GameSystem" style="shape=umlActor;verticalLabelPosition=bottom;verticalAlign=top;html=1;outlineConnect=0;" parent="1" vertex="1">
                    <mxGeometry x="230" y="40" width="60" height="126" as="geometry"/>
                </mxCell>
                <mxCell id="WrvwV2eQ_7MtZvmLX-2Q-2" value="getSquareAt(index)" style="html=1;verticalAlign=bottom;endArrow=block;curved=0;rounded=0;" parent="1" edge="1">
                    <mxGeometry x="-0.0001" width="80" relative="1" as="geometry">
                        <mxPoint x="260" y="200" as="sourcePoint"/>
                        <mxPoint x="465" y="200" as="targetPoint"/>
                        <mxPoint as="offset"/>
                    </mxGeometry>
                </mxCell>
                <mxCell id="WrvwV2eQ_7MtZvmLX-2Q-3" value=":Board" style="html=1;whiteSpace=wrap;fontStyle=4;fontSize=17;horizontal=1;" parent="1" vertex="1">
                    <mxGeometry x="420" y="78" width="100" height="30" as="geometry"/>
                </mxCell>
                <mxCell id="WrvwV2eQ_7MtZvmLX-2Q-4" style="edgeStyle=orthogonalEdgeStyle;rounded=0;orthogonalLoop=1;jettySize=auto;html=1;dashed=1;endArrow=none;endFill=0;exitX=0.5;exitY=1;exitDx=0;exitDy=0;" parent="1" edge="1">
                    <mxGeometry relative="1" as="geometry">
                        <mxPoint x="470" y="500" as="targetPoint"/>
                        <mxPoint x="470" y="126" as="sourcePoint"/>
                        <Array as="points">
                            <mxPoint x="470" y="416"/>
                        </Array>
                    </mxGeometry>
                </mxCell>
                <mxCell id="WrvwV2eQ_7MtZvmLX-2Q-5" value="return Knowledge square" style="html=1;verticalAlign=bottom;endArrow=open;dashed=1;endSize=8;curved=0;rounded=0;" parent="1" source="WrvwV2eQ_7MtZvmLX-2Q-7" edge="1">
                    <mxGeometry relative="1" as="geometry">
                        <mxPoint x="260" y="310" as="targetPoint"/>
                        <mxPoint x="470" y="466" as="sourcePoint"/>
                    </mxGeometry>
                </mxCell>
                <mxCell id="WrvwV2eQ_7MtZvmLX-2Q-6" value="" style="edgeStyle=orthogonalEdgeStyle;rounded=0;orthogonalLoop=1;jettySize=auto;html=1;dashed=1;endArrow=none;endFill=0;exitX=0.5;exitY=1;exitDx=0;exitDy=0;" parent="1" source="WrvwV2eQ_7MtZvmLX-2Q-3" target="WrvwV2eQ_7MtZvmLX-2Q-7" edge="1">
                    <mxGeometry relative="1" as="geometry">
                        <mxPoint x="470" y="326" as="targetPoint"/>
                        <mxPoint x="470" y="66" as="sourcePoint"/>
                        <Array as="points">
                            <mxPoint x="470" y="216"/>
                            <mxPoint x="470" y="216"/>
                        </Array>
                    </mxGeometry>
                </mxCell>
                <mxCell id="WrvwV2eQ_7MtZvmLX-2Q-7" value="" style="html=1;points=[[0,0,0,0,5],[0,1,0,0,-5],[1,0,0,0,5],[1,1,0,0,-5]];perimeter=orthogonalPerimeter;outlineConnect=0;targetShapes=umlLifeline;portConstraint=eastwest;newEdgeStyle={&quot;curved&quot;:0,&quot;rounded&quot;:0};" parent="1" vertex="1">
                    <mxGeometry x="465" y="200" width="10" height="110" as="geometry"/>
                </mxCell>
                <mxCell id="WrvwV2eQ_7MtZvmLX-2Q-13" value=":Knowledge" style="html=1;whiteSpace=wrap;fontStyle=4;fontSize=17;horizontal=1;" parent="1" vertex="1">
                    <mxGeometry x="630" y="78" width="100" height="30" as="geometry"/>
                </mxCell>
                <mxCell id="WrvwV2eQ_7MtZvmLX-2Q-14" style="edgeStyle=orthogonalEdgeStyle;rounded=0;orthogonalLoop=1;jettySize=auto;html=1;dashed=1;endArrow=none;endFill=0;exitX=0.5;exitY=1;exitDx=0;exitDy=0;" parent="1" source="WrvwV2eQ_7MtZvmLX-2Q-13" edge="1">
                    <mxGeometry relative="1" as="geometry">
                        <mxPoint x="680" y="500" as="targetPoint"/>
                        <mxPoint x="679.5" y="108" as="sourcePoint"/>
                    </mxGeometry>
                </mxCell>
                <mxCell id="WrvwV2eQ_7MtZvmLX-2Q-15" value="" style="html=1;points=[[0,0,0,0,5],[0,1,0,0,-5],[1,0,0,0,5],[1,1,0,0,-5]];perimeter=orthogonalPerimeter;outlineConnect=0;targetShapes=umlLifeline;portConstraint=eastwest;newEdgeStyle={&quot;curved&quot;:0,&quot;rounded&quot;:0};" parent="1" vertex="1">
                    <mxGeometry x="675" y="220" width="10" height="74" as="geometry"/>
                </mxCell>
                <mxCell id="WrvwV2eQ_7MtZvmLX-2Q-16" value="activateSquareEffect()" style="html=1;verticalAlign=bottom;endArrow=block;curved=0;rounded=0;" parent="1" edge="1">
                    <mxGeometry x="-0.0001" width="80" relative="1" as="geometry">
                        <mxPoint x="475" y="220" as="sourcePoint"/>
                        <mxPoint x="675" y="220" as="targetPoint"/>
                        <mxPoint as="offset"/>
                    </mxGeometry>
                </mxCell>
                <mxCell id="WrvwV2eQ_7MtZvmLX-2Q-17" value="return true" style="html=1;verticalAlign=bottom;endArrow=open;dashed=1;endSize=8;curved=0;rounded=0;" parent="1" edge="1">
                    <mxGeometry relative="1" as="geometry">
                        <mxPoint x="475.0000000000001" y="294.00000000000006" as="targetPoint"/>
                        <mxPoint x="675" y="294.00000000000006" as="sourcePoint"/>
                    </mxGeometry>
                </mxCell>
                <mxCell id="WrvwV2eQ_7MtZvmLX-2Q-18" value=":Player" style="shape=umlActor;verticalLabelPosition=bottom;verticalAlign=top;html=1;outlineConnect=0;" parent="1" vertex="1">
                    <mxGeometry x="40" y="40" width="60" height="126" as="geometry"/>
                </mxCell>
                <mxCell id="WrvwV2eQ_7MtZvmLX-2Q-19" value="" style="edgeStyle=orthogonalEdgeStyle;rounded=0;orthogonalLoop=1;jettySize=auto;html=1;dashed=1;endArrow=none;endFill=0;" parent="1" edge="1">
                    <mxGeometry relative="1" as="geometry">
                        <mxPoint x="70" y="500" as="targetPoint"/>
                        <mxPoint x="69.71000000000001" y="386" as="sourcePoint"/>
                        <Array as="points">
                            <mxPoint x="69.71000000000001" y="166"/>
                            <mxPoint x="69.71000000000001" y="166"/>
                        </Array>
                    </mxGeometry>
                </mxCell>
                <mxCell id="WrvwV2eQ_7MtZvmLX-2Q-20" value="confirmAction()" style="html=1;verticalAlign=bottom;endArrow=block;curved=0;rounded=0;entryX=1;entryY=0;entryDx=0;entryDy=5;entryPerimeter=0;fontColor=#FF0000;" parent="1" edge="1">
                    <mxGeometry x="-0.0001" width="80" relative="1" as="geometry">
                        <mxPoint x="255" y="413.9999999999999" as="sourcePoint"/>
                        <mxPoint x="75" y="414" as="targetPoint"/>
                        <mxPoint as="offset"/>
                    </mxGeometry>
                </mxCell>
                <mxCell id="WrvwV2eQ_7MtZvmLX-2Q-21" value="" style="edgeStyle=orthogonalEdgeStyle;rounded=0;orthogonalLoop=1;jettySize=auto;html=1;dashed=1;endArrow=none;endFill=0;" parent="1" source="WrvwV2eQ_7MtZvmLX-2Q-1" edge="1">
                    <mxGeometry relative="1" as="geometry">
                        <mxPoint x="260" y="500" as="targetPoint"/>
                        <mxPoint x="260" y="156" as="sourcePoint"/>
                        <Array as="points">
                            <mxPoint x="260" y="370"/>
                            <mxPoint x="260" y="370"/>
                        </Array>
                    </mxGeometry>
                </mxCell>
                <mxCell id="WrvwV2eQ_7MtZvmLX-2Q-22" value="" style="html=1;points=[[0,0,0,0,5],[0,1,0,0,-5],[1,0,0,0,5],[1,1,0,0,-5]];perimeter=orthogonalPerimeter;outlineConnect=0;targetShapes=umlLifeline;portConstraint=eastwest;newEdgeStyle={&quot;curved&quot;:0,&quot;rounded&quot;:0};" parent="1" vertex="1">
                    <mxGeometry x="255" y="354" width="10" height="120" as="geometry"/>
                </mxCell>
                <mxCell id="WrvwV2eQ_7MtZvmLX-2Q-23" value="displayQuestion(Question)" style="html=1;align=left;spacingLeft=2;endArrow=block;rounded=0;edgeStyle=orthogonalEdgeStyle;curved=0;rounded=0;fontColor=#FF0000;" parent="1" edge="1">
                    <mxGeometry relative="1" as="geometry">
                        <mxPoint x="265" y="378" as="sourcePoint"/>
                        <Array as="points">
                            <mxPoint x="290" y="408"/>
                        </Array>
                        <mxPoint x="265" y="408" as="targetPoint"/>
                    </mxGeometry>
                </mxCell>
                <mxCell id="WrvwV2eQ_7MtZvmLX-2Q-25" value="return 'yes'" style="html=1;verticalAlign=bottom;endArrow=open;dashed=1;endSize=8;curved=0;rounded=0;" parent="1" edge="1">
                    <mxGeometry relative="1" as="geometry">
                        <mxPoint x="255" y="444" as="targetPoint"/>
                        <mxPoint x="75" y="444" as="sourcePoint"/>
                    </mxGeometry>
                </mxCell>
                <mxCell id="WrvwV2eQ_7MtZvmLX-2Q-26" value="" style="html=1;points=[[0,0,0,0,5],[0,1,0,0,-5],[1,0,0,0,5],[1,1,0,0,-5]];perimeter=orthogonalPerimeter;outlineConnect=0;targetShapes=umlLifeline;portConstraint=eastwest;newEdgeStyle={&quot;curved&quot;:0,&quot;rounded&quot;:0};" parent="1" vertex="1">
                    <mxGeometry x="65" y="414" width="10" height="30" as="geometry"/>
                </mxCell>
                <mxCell id="WrvwV2eQ_7MtZvmLX-2Q-27" value=":Question" style="html=1;whiteSpace=wrap;fontStyle=4;fontSize=17;horizontal=1;" parent="1" vertex="1">
                    <mxGeometry x="840" y="78" width="100" height="30" as="geometry"/>
                </mxCell>
                <mxCell id="WrvwV2eQ_7MtZvmLX-2Q-28" style="edgeStyle=orthogonalEdgeStyle;rounded=0;orthogonalLoop=1;jettySize=auto;html=1;dashed=1;endArrow=none;endFill=0;exitX=0.5;exitY=1;exitDx=0;exitDy=0;" parent="1" source="WrvwV2eQ_7MtZvmLX-2Q-30" edge="1">
                    <mxGeometry relative="1" as="geometry">
                        <mxPoint x="890" y="500" as="targetPoint"/>
                        <mxPoint x="889.5699999999999" y="108" as="sourcePoint"/>
                    </mxGeometry>
                </mxCell>
                <mxCell id="WrvwV2eQ_7MtZvmLX-2Q-29" value="getQuestion()" style="html=1;verticalAlign=bottom;endArrow=block;curved=0;rounded=0;fontColor=#FF0000;" parent="1" edge="1">
                    <mxGeometry x="-0.0001" width="80" relative="1" as="geometry">
                        <mxPoint x="685" y="230" as="sourcePoint"/>
                        <mxPoint x="885" y="230" as="targetPoint"/>
                        <mxPoint as="offset"/>
                    </mxGeometry>
                </mxCell>
                <mxCell id="WrvwV2eQ_7MtZvmLX-2Q-32" value="" style="edgeStyle=orthogonalEdgeStyle;rounded=0;orthogonalLoop=1;jettySize=auto;html=1;dashed=1;endArrow=none;endFill=0;exitX=0.5;exitY=1;exitDx=0;exitDy=0;entryX=1;entryY=0;entryDx=0;entryDy=5;entryPerimeter=0;" parent="1" target="WrvwV2eQ_7MtZvmLX-2Q-30" edge="1">
                    <mxGeometry relative="1" as="geometry">
                        <mxPoint x="889.5699999999999" y="590" as="targetPoint"/>
                        <mxPoint x="889.5699999999999" y="108" as="sourcePoint"/>
                        <Array as="points">
                            <mxPoint x="890" y="185"/>
                            <mxPoint x="890" y="185"/>
                            <mxPoint x="890" y="265"/>
                        </Array>
                    </mxGeometry>
                </mxCell>
                <mxCell id="WrvwV2eQ_7MtZvmLX-2Q-30" value="" style="html=1;points=[[0,0,0,0,5],[0,1,0,0,-5],[1,0,0,0,5],[1,1,0,0,-5]];perimeter=orthogonalPerimeter;outlineConnect=0;targetShapes=umlLifeline;portConstraint=eastwest;newEdgeStyle={&quot;curved&quot;:0,&quot;rounded&quot;:0};" parent="1" vertex="1">
                    <mxGeometry x="885" y="230" width="10" height="110" as="geometry"/>
                </mxCell>
                <mxCell id="WrvwV2eQ_7MtZvmLX-2Q-34" value="return question" style="html=1;verticalAlign=bottom;endArrow=open;dashed=1;endSize=8;curved=0;rounded=0;" parent="1" edge="1">
                    <mxGeometry relative="1" as="geometry">
                        <mxPoint x="685" y="294" as="targetPoint"/>
                        <mxPoint x="885" y="294" as="sourcePoint"/>
                    </mxGeometry>
                </mxCell>
                <mxCell id="CKptNOV1TFRIx16dk-zY-1" value="isQuestionCorrect(Question)" style="html=1;align=left;spacingLeft=2;endArrow=block;rounded=0;edgeStyle=orthogonalEdgeStyle;curved=0;rounded=0;fontColor=#FF0000;" parent="1" edge="1">
                    <mxGeometry relative="1" as="geometry">
                        <mxPoint x="265" y="444" as="sourcePoint"/>
                        <Array as="points">
                            <mxPoint x="290" y="474"/>
                        </Array>
                        <mxPoint x="265" y="474" as="targetPoint"/>
                        <mxPoint as="offset"/>
                    </mxGeometry>
                </mxCell>
            </root>
        </mxGraphModel>
    </diagram>
    <diagram id="DXaTVt1DZrYjJkOkgG6z" name="Encounter Resource">
        <mxGraphModel dx="734" dy="585" grid="1" gridSize="10" guides="1" tooltips="1" connect="1" arrows="1" fold="1" page="1" pageScale="1" pageWidth="1169" pageHeight="827" math="0" shadow="0">
            <root>
                <mxCell id="0"/>
                <mxCell id="1" parent="0"/>
                <mxCell id="Ts_aheD3PYmM9yGGp9Yk-7" value="return knowledgePoints" style="html=1;verticalAlign=bottom;endArrow=none;dashed=1;endSize=8;curved=0;rounded=0;endFill=0;startArrow=open;startFill=0;fontSize=11;" parent="1" source="ikQWlH6XRK-vONFxk9gb-21" edge="1">
                    <mxGeometry relative="1" as="geometry">
                        <mxPoint x="705" y="660" as="targetPoint"/>
                        <mxPoint x="80" y="660" as="sourcePoint"/>
                    </mxGeometry>
                </mxCell>
                <mxCell id="Ts_aheD3PYmM9yGGp9Yk-8" value="getKnowledgePoints()" style="html=1;verticalAlign=bottom;endArrow=none;curved=0;rounded=0;fontSize=11;fontColor=#000000;strokeColor=#000000;startArrow=block;startFill=1;endFill=0;" parent="1" source="Ts_aheD3PYmM9yGGp9Yk-9" target="ikQWlH6XRK-vONFxk9gb-21" edge="1">
                    <mxGeometry x="-0.0001" width="80" relative="1" as="geometry">
                        <mxPoint x="265" y="627" as="sourcePoint"/>
                        <mxPoint x="75" y="627" as="targetPoint"/>
                        <mxPoint as="offset"/>
                        <Array as="points">
                            <mxPoint x="80" y="630"/>
                        </Array>
                    </mxGeometry>
                </mxCell>
                <mxCell id="Ts_aheD3PYmM9yGGp9Yk-4" value="return resourcesPoints" style="html=1;verticalAlign=bottom;endArrow=none;dashed=1;endSize=8;curved=0;rounded=0;endFill=0;startArrow=open;startFill=0;fontSize=11;" parent="1" edge="1">
                    <mxGeometry relative="1" as="geometry">
                        <mxPoint x="705.0000000000001" y="600" as="targetPoint"/>
                        <mxPoint x="74.99999999999994" y="600" as="sourcePoint"/>
                    </mxGeometry>
                </mxCell>
                <mxCell id="AaDK_J3PA3Q27E1ZdC2q-1" value="" style="edgeStyle=orthogonalEdgeStyle;rounded=0;orthogonalLoop=1;jettySize=auto;html=1;dashed=1;endArrow=none;endFill=0;exitX=0.5;exitY=1;exitDx=0;exitDy=0;" parent="1" source="2b6j42cir5-Bxea2ExSo-1" edge="1">
                    <mxGeometry relative="1" as="geometry">
                        <mxPoint x="70" y="800" as="targetPoint"/>
                        <mxPoint x="70" y="150" as="sourcePoint"/>
                        <Array as="points"/>
                    </mxGeometry>
                </mxCell>
                <mxCell id="Ts_aheD3PYmM9yGGp9Yk-5" value="getResourcesPoints()" style="html=1;verticalAlign=bottom;endArrow=none;curved=0;rounded=0;fontSize=11;fontColor=#000000;strokeColor=#000000;startArrow=block;startFill=1;endFill=0;" parent="1" source="Ts_aheD3PYmM9yGGp9Yk-6" edge="1">
                    <mxGeometry x="-0.0001" width="80" relative="1" as="geometry">
                        <mxPoint x="705" y="570" as="sourcePoint"/>
                        <mxPoint x="75" y="570" as="targetPoint"/>
                        <mxPoint as="offset"/>
                    </mxGeometry>
                </mxCell>
                <mxCell id="Ts_aheD3PYmM9yGGp9Yk-3" value="return satisfactionPoints" style="html=1;verticalAlign=bottom;endArrow=none;dashed=1;endSize=8;curved=0;rounded=0;endFill=0;startArrow=open;startFill=0;fontSize=11;" parent="1" edge="1">
                    <mxGeometry relative="1" as="geometry">
                        <mxPoint x="705" y="540" as="targetPoint"/>
                        <mxPoint x="75" y="540" as="sourcePoint"/>
                        <Array as="points">
                            <mxPoint x="690" y="540"/>
                        </Array>
                    </mxGeometry>
                </mxCell>
                <mxCell id="Ts_aheD3PYmM9yGGp9Yk-2" value="getSatisfactionPoints()" style="html=1;verticalAlign=bottom;endArrow=none;curved=0;rounded=0;fontSize=11;fontColor=#000000;strokeColor=#000000;startArrow=block;startFill=1;endFill=0;" parent="1" target="ikQWlH6XRK-vONFxk9gb-21" edge="1">
                    <mxGeometry x="-0.0001" width="80" relative="1" as="geometry">
                        <mxPoint x="705" y="511" as="sourcePoint"/>
                        <mxPoint x="190" y="511" as="targetPoint"/>
                        <mxPoint as="offset"/>
                    </mxGeometry>
                </mxCell>
                <mxCell id="ikQWlH6XRK-vONFxk9gb-2" value=":Board" style="html=1;whiteSpace=wrap;fontStyle=4;fontSize=17;horizontal=1;" parent="1" vertex="1">
                    <mxGeometry x="230" y="90" width="100" height="30" as="geometry"/>
                </mxCell>
                <mxCell id="ikQWlH6XRK-vONFxk9gb-3" style="edgeStyle=orthogonalEdgeStyle;rounded=0;orthogonalLoop=1;jettySize=auto;html=1;dashed=1;endArrow=none;endFill=0;exitX=0.5;exitY=1;exitDx=0;exitDy=0;" parent="1" source="ikQWlH6XRK-vONFxk9gb-2" edge="1">
                    <mxGeometry relative="1" as="geometry">
                        <mxPoint x="280" y="800" as="targetPoint"/>
                        <mxPoint x="280" y="120" as="sourcePoint"/>
                        <Array as="points"/>
                    </mxGeometry>
                </mxCell>
                <mxCell id="ikQWlH6XRK-vONFxk9gb-4" value="return Resource square" style="html=1;verticalAlign=bottom;endArrow=open;dashed=1;endSize=8;curved=0;rounded=0;" parent="1" source="ikQWlH6XRK-vONFxk9gb-6" edge="1">
                    <mxGeometry relative="1" as="geometry">
                        <mxPoint x="70" y="210" as="targetPoint"/>
                        <mxPoint x="280" y="426" as="sourcePoint"/>
                    </mxGeometry>
                </mxCell>
                <mxCell id="ikQWlH6XRK-vONFxk9gb-6" value="" style="html=1;points=[[0,0,0,0,5],[0,1,0,0,-5],[1,0,0,0,5],[1,1,0,0,-5]];perimeter=orthogonalPerimeter;outlineConnect=0;targetShapes=umlLifeline;portConstraint=eastwest;newEdgeStyle={&quot;curved&quot;:0,&quot;rounded&quot;:0};" parent="1" vertex="1">
                    <mxGeometry x="275" y="160" width="10" height="50" as="geometry"/>
                </mxCell>
                <mxCell id="ikQWlH6XRK-vONFxk9gb-12" value=":Resource" style="html=1;whiteSpace=wrap;fontStyle=4;fontSize=17;horizontal=1;" parent="1" vertex="1">
                    <mxGeometry x="450" y="90" width="100" height="30" as="geometry"/>
                </mxCell>
                <mxCell id="ikQWlH6XRK-vONFxk9gb-13" style="edgeStyle=orthogonalEdgeStyle;rounded=0;orthogonalLoop=1;jettySize=auto;html=1;dashed=1;endArrow=none;endFill=0;exitX=0.5;exitY=1;exitDx=0;exitDy=0;" parent="1" source="ikQWlH6XRK-vONFxk9gb-12" edge="1">
                    <mxGeometry relative="1" as="geometry">
                        <mxPoint x="500" y="800" as="targetPoint"/>
                        <mxPoint x="499.5" y="68" as="sourcePoint"/>
                    </mxGeometry>
                </mxCell>
                <mxCell id="ikQWlH6XRK-vONFxk9gb-16" value="return true" style="html=1;verticalAlign=bottom;endArrow=open;dashed=1;endSize=8;curved=0;rounded=0;" parent="1" edge="1">
                    <mxGeometry relative="1" as="geometry">
                        <mxPoint x="70" y="740" as="targetPoint"/>
                        <mxPoint x="505" y="740" as="sourcePoint"/>
                    </mxGeometry>
                </mxCell>
                <mxCell id="ikQWlH6XRK-vONFxk9gb-26" value="getSquareAt(index)" style="html=1;verticalAlign=bottom;endArrow=block;curved=0;rounded=0;" parent="1" target="ikQWlH6XRK-vONFxk9gb-6" edge="1">
                    <mxGeometry x="-0.0001" width="80" relative="1" as="geometry">
                        <mxPoint x="70" y="160" as="sourcePoint"/>
                        <mxPoint x="270" y="160" as="targetPoint"/>
                        <mxPoint as="offset"/>
                    </mxGeometry>
                </mxCell>
                <mxCell id="8qdRxv5kryz0TttnT-iZ-3" value=":Player" style="html=1;whiteSpace=wrap;fontStyle=4;fontSize=17;horizontal=1;" parent="1" vertex="1">
                    <mxGeometry x="660" y="90" width="100" height="30" as="geometry"/>
                </mxCell>
                <mxCell id="BiyFUF5evJ33eDZYMCjw-1" value="getKnowledgePoints()" style="html=1;verticalAlign=bottom;endArrow=block;curved=0;rounded=0;" parent="1" edge="1">
                    <mxGeometry x="-0.0001" width="80" relative="1" as="geometry">
                        <mxPoint x="505" y="329.5" as="sourcePoint"/>
                        <mxPoint x="705" y="329.5" as="targetPoint"/>
                        <mxPoint as="offset"/>
                    </mxGeometry>
                </mxCell>
                <mxCell id="BiyFUF5evJ33eDZYMCjw-2" style="edgeStyle=orthogonalEdgeStyle;rounded=0;orthogonalLoop=1;jettySize=auto;html=1;dashed=1;endArrow=none;endFill=0;exitX=0.5;exitY=1;exitDx=0;exitDy=0;" parent="1" source="8qdRxv5kryz0TttnT-iZ-3" edge="1">
                    <mxGeometry relative="1" as="geometry">
                        <mxPoint x="710" y="800" as="targetPoint"/>
                        <mxPoint x="710" y="280" as="sourcePoint"/>
                    </mxGeometry>
                </mxCell>
                <mxCell id="BiyFUF5evJ33eDZYMCjw-6" value="return knowledgePoints" style="html=1;verticalAlign=bottom;endArrow=open;dashed=1;endSize=8;curved=0;rounded=0;" parent="1" edge="1">
                    <mxGeometry relative="1" as="geometry">
                        <mxPoint x="505" y="369.5" as="targetPoint"/>
                        <mxPoint x="710" y="369.5" as="sourcePoint"/>
                    </mxGeometry>
                </mxCell>
                <mxCell id="dhB2sEfPZyMx4t2ojGNp-4" value="activateSquareEffect()" style="html=1;verticalAlign=bottom;endArrow=block;curved=0;rounded=0;fontColor=#000000;" parent="1" edge="1">
                    <mxGeometry x="-0.0001" width="80" relative="1" as="geometry">
                        <mxPoint x="70" y="240" as="sourcePoint"/>
                        <mxPoint x="495" y="240" as="targetPoint"/>
                        <mxPoint as="offset"/>
                    </mxGeometry>
                </mxCell>
                <mxCell id="dhB2sEfPZyMx4t2ojGNp-5" value="" style="html=1;points=[[0,0,0,0,5],[0,1,0,0,-5],[1,0,0,0,5],[1,1,0,0,-5]];perimeter=orthogonalPerimeter;outlineConnect=0;targetShapes=umlLifeline;portConstraint=eastwest;newEdgeStyle={&quot;curved&quot;:0,&quot;rounded&quot;:0};" parent="1" vertex="1">
                    <mxGeometry x="495" y="240" width="10" height="500" as="geometry"/>
                </mxCell>
                <mxCell id="dhB2sEfPZyMx4t2ojGNp-7" value="" style="html=1;points=[[0,0,0,0,5],[0,1,0,0,-5],[1,0,0,0,5],[1,1,0,0,-5]];perimeter=orthogonalPerimeter;outlineConnect=0;targetShapes=umlLifeline;portConstraint=eastwest;newEdgeStyle={&quot;curved&quot;:0,&quot;rounded&quot;:0};" parent="1" vertex="1">
                    <mxGeometry x="705" y="329.5" width="10" height="40" as="geometry"/>
                </mxCell>
                <mxCell id="u5es6ukbRsbJPOkRstII-1" value="changeResourcesBy(numMaterials)" style="html=1;verticalAlign=bottom;endArrow=block;curved=0;rounded=0;fontColor=#000000;" parent="1" target="u5es6ukbRsbJPOkRstII-2" edge="1">
                    <mxGeometry x="-0.0001" width="80" relative="1" as="geometry">
                        <mxPoint x="505" y="419.5" as="sourcePoint"/>
                        <mxPoint x="710" y="409.5" as="targetPoint"/>
                        <mxPoint as="offset"/>
                    </mxGeometry>
                </mxCell>
                <mxCell id="u5es6ukbRsbJPOkRstII-2" value="" style="html=1;points=[[0,0,0,0,5],[0,1,0,0,-5],[1,0,0,0,5],[1,1,0,0,-5]];perimeter=orthogonalPerimeter;outlineConnect=0;targetShapes=umlLifeline;portConstraint=eastwest;newEdgeStyle={&quot;curved&quot;:0,&quot;rounded&quot;:0};" parent="1" vertex="1">
                    <mxGeometry x="705" y="409.5" width="10" height="40" as="geometry"/>
                </mxCell>
                <mxCell id="u5es6ukbRsbJPOkRstII-4" value="" style="html=1;verticalAlign=bottom;endArrow=open;dashed=1;endSize=8;curved=0;rounded=0;" parent="1" edge="1">
                    <mxGeometry relative="1" as="geometry">
                        <mxPoint x="505" y="449.5" as="targetPoint"/>
                        <mxPoint x="705" y="449.5" as="sourcePoint"/>
                    </mxGeometry>
                </mxCell>
                <mxCell id="fardCwScrfmAZN72EKG--1" value="*updatePlayerDisplay()" style="html=1;verticalAlign=bottom;endArrow=block;curved=0;rounded=0;entryX=1;entryY=0;entryDx=0;entryDy=5;entryPerimeter=0;fontColor=#000000;" parent="1" edge="1">
                    <mxGeometry x="-0.0001" width="80" relative="1" as="geometry">
                        <mxPoint x="495" y="480" as="sourcePoint"/>
                        <mxPoint x="75" y="480" as="targetPoint"/>
                        <mxPoint as="offset"/>
                    </mxGeometry>
                </mxCell>
                <mxCell id="ikQWlH6XRK-vONFxk9gb-21" value="" style="html=1;points=[[0,0,0,0,5],[0,1,0,0,-5],[1,0,0,0,5],[1,1,0,0,-5]];perimeter=orthogonalPerimeter;outlineConnect=0;targetShapes=umlLifeline;portConstraint=eastwest;newEdgeStyle={&quot;curved&quot;:0,&quot;rounded&quot;:0};" parent="1" vertex="1">
                    <mxGeometry x="65" y="480" width="10" height="200" as="geometry"/>
                </mxCell>
                <mxCell id="Ts_aheD3PYmM9yGGp9Yk-1" value="" style="html=1;points=[[0,0,0,0,5],[0,1,0,0,-5],[1,0,0,0,5],[1,1,0,0,-5]];perimeter=orthogonalPerimeter;outlineConnect=0;targetShapes=umlLifeline;portConstraint=eastwest;newEdgeStyle={&quot;curved&quot;:0,&quot;rounded&quot;:0};" parent="1" vertex="1">
                    <mxGeometry x="705" y="510" width="10" height="30" as="geometry"/>
                </mxCell>
                <mxCell id="Ts_aheD3PYmM9yGGp9Yk-6" value="" style="html=1;points=[[0,0,0,0,5],[0,1,0,0,-5],[1,0,0,0,5],[1,1,0,0,-5]];perimeter=orthogonalPerimeter;outlineConnect=0;targetShapes=umlLifeline;portConstraint=eastwest;newEdgeStyle={&quot;curved&quot;:0,&quot;rounded&quot;:0};" parent="1" vertex="1">
                    <mxGeometry x="705" y="570" width="10" height="30" as="geometry"/>
                </mxCell>
                <mxCell id="Ts_aheD3PYmM9yGGp9Yk-9" value="" style="html=1;points=[[0,0,0,0,5],[0,1,0,0,-5],[1,0,0,0,5],[1,1,0,0,-5]];perimeter=orthogonalPerimeter;outlineConnect=0;targetShapes=umlLifeline;portConstraint=eastwest;newEdgeStyle={&quot;curved&quot;:0,&quot;rounded&quot;:0};" parent="1" vertex="1">
                    <mxGeometry x="705" y="630" width="10" height="30" as="geometry"/>
                </mxCell>
                <mxCell id="ZFLoKMKSwkY5HYKPCZ_N-3" value="" style="html=1;verticalAlign=bottom;endArrow=open;dashed=1;endSize=8;curved=0;rounded=0;" parent="1" edge="1">
                    <mxGeometry relative="1" as="geometry">
                        <mxPoint x="495.0000000000002" y="680.0000000000001" as="targetPoint"/>
                        <mxPoint x="75" y="680.0000000000001" as="sourcePoint"/>
                    </mxGeometry>
                </mxCell>
                <mxCell id="2b6j42cir5-Bxea2ExSo-1" value=":GameSystem" style="html=1;whiteSpace=wrap;fontStyle=4;fontSize=17;horizontal=1;" parent="1" vertex="1">
                    <mxGeometry x="5" y="90" width="130" height="30" as="geometry"/>
                </mxCell>
                <mxCell id="WP8ZOrIiYHOcyZACA4wW-1" value="displayEvent()" style="html=1;align=left;spacingLeft=2;endArrow=block;rounded=0;edgeStyle=orthogonalEdgeStyle;curved=0;rounded=0;fontColor=#000000;" parent="1" edge="1">
                    <mxGeometry relative="1" as="geometry">
                        <mxPoint x="505" y="250.00000000000003" as="sourcePoint"/>
                        <Array as="points">
                            <mxPoint x="530" y="280"/>
                        </Array>
                        <mxPoint x="505" y="280" as="targetPoint"/>
                        <mxPoint as="offset"/>
                    </mxGeometry>
                </mxCell>
                <mxCell id="WP8ZOrIiYHOcyZACA4wW-2" value="remindPlayer()" style="html=1;align=left;spacingLeft=2;endArrow=block;rounded=0;edgeStyle=orthogonalEdgeStyle;curved=0;rounded=0;fontColor=#000000;" parent="1" edge="1">
                    <mxGeometry relative="1" as="geometry">
                        <mxPoint x="505" y="700" as="sourcePoint"/>
                        <Array as="points">
                            <mxPoint x="530" y="730"/>
                        </Array>
                        <mxPoint x="505" y="730" as="targetPoint"/>
                    </mxGeometry>
                </mxCell>
            </root>
        </mxGraphModel>
    </diagram>
</mxfile>